# xmcd CD database file
#
# Track frame offsets:
#	150
#	11525
#	37913
#	49670
#	64696
#	78237
#	101200
#	120301
#	144005
#	159350
#
# Disc length: 2563 seconds
#
# Revision: 0
# Processed by: cddbd v1.5.2PL0 Copyright (c) Steve Scherf et al.
# Submitted via: CDex 1.51
#
DISCID=6c0a010a
DTITLE=5 Minutos de Jazz - Disco 4
DYEAR=2006
DGENRE=Jazz
TTITLE0=MILES DAVIS - Move
TTITLE1=ROY ELDRIDGE - Pretty-Eyed-Baby
TTITLE2=ELLA FITZGERALD - A-Tisket, A-Tasket
TTITLE3=BENNY GOODMAN - Air Mail Special
TTITLE4=EARL HINES - Second Balcony Jump
TTITLE5=J. J. JOHNSON - Blues for Trombone
TTITLE6=MODERN JAZZ QUARTET - Delaunay's Dilemna
TTITLE7=GERRY MULLIGAN - My Funny Valentine
TTITLE8=BUD POWELL - Parisian Thoroughfare
TTITLE9=LESTER YOUNG - It Takes Two to Tango
EXTD=YEAR: 2006
EXTT0=
EXTT1=
EXTT2=
EXTT3=
EXTT4=
EXTT5=
EXTT6=
EXTT7=
EXTT8=
EXTT9=
PLAYORDER=
